<svg xmlns="http://www.w3.org/2000/svg" xmlns:xlink="http://www.w3.org/1999/xlink" viewBox="0 0 480 560"><defs><style>.cls-1{isolation:isolate;}.cls-2{opacity:0.2;}.cls-3{fill:#98dba1;}.cls-4{fill:#80d2fe;}.cls-5{fill:#92bbff;}.cls-6{fill:#b1f0ef;}.cls-7{fill:#fdd499;}.cls-8{fill:#ff8080;}.cls-9{mix-blend-mode:multiply;fill:url(#linear-gradient);}.cls-10{fill:#fff;}.cls-11{fill:#cce3ff;}.cls-12{fill:#98ca3c;}.cls-13{fill:#dbe1e9;}.cls-14{opacity:0.1;}.cls-15{fill:#b2d6ff;}.cls-16{fill:#fcc;}</style><linearGradient id="linear-gradient" x1="257.36" y1="234.66" x2="113.71" y2="202.8" gradientUnits="userSpaceOnUse"><stop offset="0.08" stop-color="#dbe1e9" stop-opacity="0.7"/><stop offset="0.21" stop-color="#dbe1e9" stop-opacity="0.68"/><stop offset="0.35" stop-color="#dbe1e9" stop-opacity="0.62"/><stop offset="0.51" stop-color="#dbe1e9" stop-opacity="0.53"/><stop offset="0.66" stop-color="#dbe1e9" stop-opacity="0.4"/><stop offset="0.82" stop-color="#dbe1e9" stop-opacity="0.22"/><stop offset="0.99" stop-color="#dbe1e9" stop-opacity="0.02"/><stop offset="1" stop-color="#dbe1e9" stop-opacity="0"/></linearGradient></defs><g class="cls-1"><g id="Layer_1" data-name="Layer 1"><g class="cls-2"><circle class="cls-3" cx="205.94" cy="30.69" r="20.81"/><circle class="cls-3" cx="332.86" cy="463.66" r="13.96"/><circle class="cls-4" cx="186.48" cy="397.06" r="29.12"/><circle class="cls-5" cx="453.87" cy="177.76" r="19.32"/><circle class="cls-5" cx="416.55" cy="398.68" r="17.66"/><circle class="cls-6" cx="120.8" cy="195.15" r="13"/><circle class="cls-5" cx="100.03" cy="106.7" r="13"/><circle class="cls-7" cx="27.12" cy="233.95" r="20.31"/><circle class="cls-7" cx="399.83" cy="253.84" r="19.12"/><circle class="cls-8" cx="91.61" cy="330.16" r="14.23"/><circle class="cls-8" cx="419.11" cy="90.55" r="12.2"/><circle class="cls-6" cx="281.03" cy="69.12" r="18.67"/></g><path class="cls-9" d="M217.42,182H79.26v36.78l75.44,36.13c9.75,4.87,27.06,5.33,27.06,5.33H383.21c2,0,1.81-.88-.48-2L225.22,184A22.29,22.29,0,0,0,217.42,182Z"/><rect class="cls-10" x="166.31" y="95.04" width="180" height="159.61" rx="24"/><path class="cls-11" d="M322.3,260.12h-132a29.5,29.5,0,0,1-29.47-29.47V119a29.5,29.5,0,0,1,29.47-29.47h132A29.5,29.5,0,0,1,351.77,119V230.65A29.5,29.5,0,0,1,322.3,260.12Zm-132-159.61A18.55,18.55,0,0,0,171.78,119V230.65a18.55,18.55,0,0,0,18.53,18.53h132a18.56,18.56,0,0,0,18.54-18.53V119a18.56,18.56,0,0,0-18.54-18.53Z"/><path class="cls-10" d="M282.76,101.1a26.45,26.45,0,1,0-49.11,13.46H279a26.14,26.14,0,0,0,3.8-13.46"/><path class="cls-11" d="M279,119.05H233.65a4.49,4.49,0,0,1-3.86-2.19,30.94,30.94,0,1,1,53,0A4.48,4.48,0,0,1,279,119.05Zm-42.61-9h39.92a21.17,21.17,0,0,0,2-9,22,22,0,0,0-43.93,0A21.18,21.18,0,0,0,236.35,110.07Z"/><path class="cls-11" d="M295.7,119.05H216.91a4.49,4.49,0,0,1,0-9H295.7a4.49,4.49,0,1,1,0,9Z"/><path class="cls-12" d="M292.11,173.18l-28.73-28.73a10,10,0,0,0-14.24,0l-28.48,28.73a10,10,0,0,0,0,14.24l28.73,28.73a10,10,0,0,0,14.24,0l28.73-28.73C295.86,183.43,295.86,176.93,292.11,173.18Zm-35.73-11.24c2,0,3,1.25,3,3.5,0,2-.5,7.49-1.25,15.24l-.75,7.74h-2l-.74-7.74c-.75-8-1.5-13-1.5-15.49S254.39,161.94,256.38,161.94Zm0,36.73a3.42,3.42,0,0,1-3.49-3.5h0a3.8,3.8,0,0,1,3.49-3.75h0a3.63,3.63,0,0,1,3.5,3.75A3.42,3.42,0,0,1,256.38,198.67Z"/><ellipse class="cls-13" cx="322.81" cy="535.97" rx="67.4" ry="14.14"/><circle class="cls-14" cx="342.57" cy="240.83" r="53.51"/><circle class="cls-8" cx="353.57" cy="250.83" r="48.74"/><path class="cls-10" d="M353.57,206.09a44.74,44.74,0,1,1-44.73,44.74,44.74,44.74,0,0,1,44.73-44.74m0-8a52.74,52.74,0,1,0,52.74,52.74,52.8,52.8,0,0,0-52.74-52.74Z"/><path class="cls-10" d="M353.57,270.41a2.69,2.69,0,0,1-2.68-2.69V231.93a2.69,2.69,0,0,1,5.37,0v35.79A2.69,2.69,0,0,1,353.57,270.41Z"/><path class="cls-10" d="M371.47,252.51H335.68a2.69,2.69,0,0,1,0-5.37h35.79a2.69,2.69,0,0,1,0,5.37Z"/><path class="cls-12" d="M333.14,533.93a3.48,3.48,0,0,1,1.05-2.68c1.38-1.38,7.07-1.84,9.41-3.17a21.27,21.27,0,0,0,4.75-4.4c5.47.32,7.85-.35,7.85-.35s2.07,8.59,1.7,11.44C353.67,535.14,334.83,536.34,333.14,533.93Z"/><path class="cls-10" d="M357.9,534.77a1.83,1.83,0,0,1-.2.71c-1,1.65-5.72,1-15.42,1-5.3,0-8.93-1.29-9.14-2.6C334.83,536.34,353.67,535.14,357.9,534.77Z"/><path class="cls-10" d="M305.13,534.58a2.26,2.26,0,0,1-.22.9c-.64,1-2.62,1.08-6.26,1l-1.11,0h-1.19c-1.93,0-4.21,0-6.87,0-8,.21-10.7-1.06-11.41-2.36C285.43,536.73,303.59,534.75,305.13,534.58Z"/><path class="cls-12" d="M278.07,534.17a2,2,0,0,1,.41-2.28c1.39-1.38,10-2.48,12.32-3.81a21,21,0,0,0,4.75-4.4,40.11,40.11,0,0,0,7.85-.35s2,8.21,1.73,11.25C303.59,534.75,285.43,536.73,278.07,534.17Z"/><path class="cls-15" d="M297.9,464.21c.34-4,.8-28.6,1.49-35s6.43-38.53,6.43-38.53c3.86-6.47,39.26,1.26,39.26,1.26s3.91,12.15,3.4,22.62,2,21.93,3.06,32.87c1.15,12.19,5.88,41.05,6,47.57s0,31.19,0,31.19A99.47,99.47,0,0,1,347.46,528c-2.82.17-2.64-1.93-2.64-1.93s-5.38-54-7.44-59.15c-1.68-4.19-8.75-29.25-11.51-40.68-4.59,11.29-10.69,29.1-10.69,44.46,0,16.64-11.1,55.94-11.1,55.94s-6.19,1.89-8.45,1.81c-3.62-.12-3.14-1.7-3.14-1.7C294.32,520.84,297.56,468.22,297.9,464.21Z"/><path class="cls-16" d="M318.94,308.84s1.19,3.46,0,5.94,15.22,1,15.22,1a17.65,17.65,0,0,1,1.4-9.31C337.7,302.24,318.94,308.84,318.94,308.84Z"/><path d="M345.56,395c-2.22,1.24-11.15,4.37-39.65-1.18a1,1,0,0,1-.79-1.15l.21-1.17a1,1,0,0,1,1-.81l38.48,1.42a1,1,0,0,1,.92.73l.27,1.06A1,1,0,0,1,345.56,395Z"/><path class="cls-16" d="M336.08,315.46s5.87,1.64,7.52,2.26,13.54.22,15.94.38,13.63-5,14.1-5.74,8.78-14.41,9.65-17.52,5.9-.57,5.07,1.54c-1.56,3.94-4.36,13.66-5.46,16.43-1.18,3-4.13,9.72-5.25,10.42s-11.36,6-20.72,7.42a76.08,76.08,0,0,0-16.77,4.55l-43.65-7.53S283.72,300.48,284,296.76s18.29-27.33,21.26-30,4.17,3.44,4.17,3.44-11,20.17-12.5,23.05,5.66,17.9,8.25,18.39,3.35,5.55,6.33,5.94,12.42-5.13,12.42-5.13Z"/><path class="cls-13" d="M357.1,333.91a15.41,15.41,0,0,0-5.12,5.31c-.66,1.17-4.05,12-4.76,15-1,4.35-2.18,35.72-2,37.46s-34.58,3.68-39.61-.76c0,0-.06-22.68-.27-29.13s-2.2-22.2-3.05-24.36-11.77-19.71-12.13-22c0,0,6.82-9.49,11.27-9.33,0,0,6.54,8.71,8.82,9.23s9.49-1.86,26.29-1c0,0,9.68,1.71,11.25,2,1.9.37,15.37-.71,15.37-.71s4.78,9.38,3.56,13.88Z"/><path class="cls-13" d="M315.45,315.1l3.62-2.9s10.13-.32,15.27.42l3.15,3.4S324.51,319.08,315.45,315.1Z"/><path class="cls-16" d="M317.84,292c.67-2.57,1.54-6.9,1.54-6.9l-.08-.17c1.78-1.33,4.69-2.06,9.59-.8,3.74,1,5.29,3.61,5.29,5.64,0,1.73.83,9-2,13-2.52,3.61-6,7-11.83,6.69-2.68-.13-3.5-3.12-3.89-5.28-.57-3.2-1.05-6.63.17-9.75A23.42,23.42,0,0,0,317.84,292Z"/><path d="M321.28,297.35c1.74-2.46,3.07-3.52,1.78-4.8s-2.64,2.74-2.64,2.74-.53-.75-.43-.94c.77-1.44,2.44-6,2.17-7-.34-1.17-1.79-2-2.86-2.49-.41-.93-3.62-6.78,2.51-8.24,3.23-.77,7.5,1.78,9.92,2.57,3.53,1.16,6,2.26,6,2.26,5.66-.15,5.68,4.94,6.18,7.31.55,2.65-2.93,11.43-3.5,12.53s-4.37,8.29-4.87,9a4.38,4.38,0,0,1-2.1,1.11c-1.22.47-2.82.55-5.46.28a29.9,29.9,0,0,1-5.22-1.39s-1.59-5.63-1.42-7.62C321.5,301.22,320.47,298.5,321.28,297.35Z"/><path class="cls-16" d="M309,270.62l8.7-10.46c-.11-2.25-3.06.38-3.06.38l-2.29,2.34a12.22,12.22,0,0,0,.66-2.65,15.51,15.51,0,0,0,.31-3.14c.09-1.36,0-5.21-2.52-5.65-2.72-.47-4.11,4.46-4.5,5A33.17,33.17,0,0,0,305,260c-.15.34-.47,4.92-.93,8.68"/><path class="cls-16" d="M383.22,296.4l-4.83-11.56c.74-2.13,2.83,1.22,2.83,1.22l1,2a11.53,11.53,0,0,1,.11-2.72,16.53,16.53,0,0,1,.58-3.1c.3-1.33,1.52-5,4-4.71,2.74.31,2.68,5.44,2.9,6.11a32.73,32.73,0,0,1,.23,3.73c0,.36-.94,4.84-1.56,8.58"/></g></g></svg>