<svg id="Layer_1" data-name="Layer 1" xmlns="http://www.w3.org/2000/svg" viewBox="0 0 440 280"><defs><style>.cls-1{fill:#fff;}.cls-2{fill:#ffe9cc;}.cls-3{fill:#fff0f0;}.cls-4{fill:#cce3ff;}.cls-5{fill:#ccf1d5;}.cls-6{fill:#ccedff;}.cls-7{fill:#f1f1f1;}.cls-8{fill:#f0f0f0;}.cls-9{fill:none;stroke:#f0f0f0;stroke-miterlimit:10;stroke-width:0.3px;}.cls-10{fill:#e9edf2;}.cls-11{fill:#dbe1e9;}.cls-12,.cls-13{opacity:0.1;}.cls-14{fill:#ff8080;}</style></defs><rect class="cls-1" x="7.37" y="7.09" width="193.35" height="93.86" rx="4.83"/><rect class="cls-2" x="68.13" y="16.64" width="33.61" height="8.56" rx="4.28"/><rect class="cls-3" x="16.45" y="84.23" width="57.79" height="8.56" rx="4.28"/><rect class="cls-4" x="129.28" y="84.48" width="8.05" height="8.05" rx="4.03"/><rect class="cls-5" x="147.74" y="84.48" width="8.05" height="8.05" rx="4.03"/><rect class="cls-6" x="166.2" y="84.48" width="8.05" height="8.05" rx="4.03"/><rect class="cls-2" x="184.66" y="84.48" width="8.05" height="8.05" rx="4.03"/><rect class="cls-7" x="16.35" y="17.86" width="43.45" height="6.36"/><rect class="cls-7" x="16.35" y="38.26" width="160.31" height="6.36"/><rect class="cls-7" x="16.35" y="56" width="101.16" height="6.36"/><ellipse class="cls-5" cx="185.78" cy="20.91" rx="7.09" ry="7.13" transform="matrix(1, 0, 0, 1, -0.04, 0.39)"/><rect class="cls-8" x="16.58" y="75.71" width="175.23" height="0.3"/><line class="cls-9" x1="16.58" y1="75.86" x2="143.84" y2="75.86"/><rect class="cls-10" x="7.37" y="132.01" width="193.35" height="93.86" rx="4.83"/><path class="cls-11" d="M195.89,226.28h-3.22a.41.41,0,1,1,0-.81h3.22a4.43,4.43,0,0,0,2.14-.55.39.39,0,0,1,.54.16.41.41,0,0,1-.15.55A5.32,5.32,0,0,1,195.89,226.28Zm-8.06,0h-3.22a.41.41,0,0,1,0-.81h3.22a.41.41,0,1,1,0,.81Zm-8.05,0h-3.22a.41.41,0,0,1,0-.81h3.22a.41.41,0,0,1,0,.81Zm-8.05,0h-3.22a.41.41,0,1,1,0-.81h3.22a.41.41,0,0,1,0,.81Zm-8,0h-3.23a.41.41,0,0,1,0-.81h3.23a.41.41,0,0,1,0,.81Zm-8.06,0H152.4a.41.41,0,0,1,0-.81h3.22a.41.41,0,1,1,0,.81Zm-8.05,0h-3.22a.41.41,0,0,1,0-.81h3.22a.41.41,0,0,1,0,.81Zm-8,0H136.3a.41.41,0,1,1,0-.81h3.22a.41.41,0,0,1,0,.81Zm-8.06,0h-3.22a.41.41,0,0,1,0-.81h3.22a.41.41,0,1,1,0,.81Zm-8.05,0h-3.22a.41.41,0,0,1,0-.81h3.22a.41.41,0,0,1,0,.81Zm-8,0h-3.22a.41.41,0,1,1,0-.81h3.22a.41.41,0,0,1,0,.81Zm-8.06,0h-3.22a.41.41,0,0,1,0-.81h3.22a.41.41,0,1,1,0,.81Zm-8,0H96a.41.41,0,0,1,0-.81h3.22a.41.41,0,0,1,0,.81Zm-8,0H88a.41.41,0,0,1,0-.81H91.2a.41.41,0,0,1,0,.81Zm-8,0H79.92a.41.41,0,0,1,0-.81h3.23a.41.41,0,0,1,0,.81Zm-8.06,0H71.87a.41.41,0,0,1,0-.81h3.22a.41.41,0,1,1,0,.81Zm-8,0H63.82a.41.41,0,0,1,0-.81H67a.41.41,0,0,1,0,.81Zm-8.05,0H55.77a.41.41,0,1,1,0-.81H59a.41.41,0,0,1,0,.81Zm-8.06,0H47.71a.41.41,0,0,1,0-.81h3.22a.41.41,0,1,1,0,.81Zm-8,0H39.66a.41.41,0,0,1,0-.81h3.22a.41.41,0,0,1,0,.81Zm-8.05,0H31.61a.41.41,0,1,1,0-.81h3.22a.41.41,0,0,1,0,.81Zm-8,0H23.55a.41.41,0,0,1,0-.81h3.23a.41.41,0,0,1,0,.81Zm-8.06,0H15.5a.41.41,0,0,1,0-.81h3.22a.41.41,0,1,1,0,.81Zm-8-.24-.13,0a5.28,5.28,0,0,1-2.73-2.08.39.39,0,0,1,.12-.55.38.38,0,0,1,.55.11,4.48,4.48,0,0,0,2.31,1.75.41.41,0,0,1,.26.51A.42.42,0,0,1,10.7,226Zm190-4.27h0a.4.4,0,0,1-.37-.43c0-.1,0-.2,0-.3v-2.9a.4.4,0,0,1,.8,0V221c0,.12,0,.24,0,.35A.4.4,0,0,1,200.71,221.77ZM7.37,219.45a.4.4,0,0,1-.4-.4v-3.22a.4.4,0,0,1,.8,0v3.22A.4.4,0,0,1,7.37,219.45Zm193.35-5.74a.4.4,0,0,1-.4-.4v-3.22a.4.4,0,0,1,.8,0v3.22A.4.4,0,0,1,200.72,213.71ZM7.37,211.4A.4.4,0,0,1,7,211v-3.22a.4.4,0,1,1,.8,0V211A.4.4,0,0,1,7.37,211.4Zm193.35-5.74a.4.4,0,0,1-.4-.4V202a.4.4,0,0,1,.8,0v3.22A.4.4,0,0,1,200.72,205.66ZM7.37,203.35a.4.4,0,0,1-.4-.41v-3.22a.4.4,0,0,1,.8,0v3.22A.4.4,0,0,1,7.37,203.35Zm193.35-5.74a.4.4,0,0,1-.4-.4V194a.4.4,0,1,1,.8,0v3.22A.4.4,0,0,1,200.72,197.61ZM7.37,195.29a.4.4,0,0,1-.4-.4v-3.22a.4.4,0,0,1,.8,0v3.22A.4.4,0,0,1,7.37,195.29Zm193.35-5.73a.4.4,0,0,1-.4-.41v-3.22a.4.4,0,0,1,.8,0v3.22A.4.4,0,0,1,200.72,189.56ZM7.37,187.24a.4.4,0,0,1-.4-.4v-3.22a.4.4,0,1,1,.8,0v3.22A.4.4,0,0,1,7.37,187.24Zm193.35-5.74a.4.4,0,0,1-.4-.4v-3.22a.4.4,0,0,1,.8,0v3.22A.4.4,0,0,1,200.72,181.5ZM7.37,179.19a.4.4,0,0,1-.4-.41v-3.22a.4.4,0,0,1,.8,0v3.22A.4.4,0,0,1,7.37,179.19Zm193.35-5.74a.4.4,0,0,1-.4-.4v-3.22a.4.4,0,1,1,.8,0v3.22A.4.4,0,0,1,200.72,173.45ZM7.37,171.13a.4.4,0,0,1-.4-.4v-3.22a.4.4,0,0,1,.8,0v3.22A.4.4,0,0,1,7.37,171.13Zm193.35-5.73a.4.4,0,0,1-.4-.41v-3.22a.4.4,0,0,1,.8,0V165A.4.4,0,0,1,200.72,165.4ZM7.37,163.08a.4.4,0,0,1-.4-.4v-3.22a.4.4,0,0,1,.8,0v3.22A.4.4,0,0,1,7.37,163.08Zm193.35-5.74a.4.4,0,0,1-.4-.4v-3.22a.4.4,0,0,1,.8,0v3.22A.4.4,0,0,1,200.72,157.34ZM7.37,155a.4.4,0,0,1-.4-.4V151.4a.4.4,0,0,1,.8,0v3.23A.4.4,0,0,1,7.37,155Zm193.35-5.74a.4.4,0,0,1-.4-.4v-3.22a.4.4,0,0,1,.8,0v3.22A.4.4,0,0,1,200.72,149.29ZM7.37,147a.4.4,0,0,1-.4-.41v-3.22a.4.4,0,0,1,.8,0v3.22A.4.4,0,0,1,7.37,147Zm193.35-5.74a.4.4,0,0,1-.4-.4v-3.23a.4.4,0,0,1,.8,0v3.23A.4.4,0,0,1,200.72,141.24ZM7.37,138.92a.4.4,0,0,1-.4-.4v-1.68a5.36,5.36,0,0,1,.26-1.64.41.41,0,0,1,.51-.26.4.4,0,0,1,.25.51,4.7,4.7,0,0,0-.22,1.39v1.68A.4.4,0,0,1,7.37,138.92Zm191.74-5.27a.43.43,0,0,1-.27-.11,4.4,4.4,0,0,0-2.67-1.12.4.4,0,0,1,.06-.8,5.21,5.21,0,0,1,3.15,1.32.4.4,0,0,1,0,.57A.41.41,0,0,1,199.11,133.65ZM11,132.56a.4.4,0,0,1-.1-.79,5.14,5.14,0,0,1,1.3-.16h2a.4.4,0,1,1,0,.8h-2a4.54,4.54,0,0,0-1.1.14Zm180.37-.15h-3.22a.4.4,0,1,1,0-.8h3.22a.4.4,0,1,1,0,.8Zm-8.05,0h-3.23a.4.4,0,1,1,0-.8h3.23a.4.4,0,1,1,0,.8Zm-8.06,0H172a.4.4,0,1,1,0-.8h3.22a.4.4,0,1,1,0,.8Zm-8,0H164a.4.4,0,1,1,0-.8h3.22a.4.4,0,1,1,0,.8Zm-8.05,0h-3.22a.4.4,0,1,1,0-.8h3.22a.4.4,0,1,1,0,.8Zm-8.06,0h-3.22a.4.4,0,1,1,0-.8h3.22a.4.4,0,1,1,0,.8Zm-8,0h-3.22a.4.4,0,1,1,0-.8h3.22a.4.4,0,0,1,0,.8Zm-8.05,0h-3.22a.4.4,0,1,1,0-.8H135a.4.4,0,1,1,0,.8Zm-8,0h-3.23a.4.4,0,1,1,0-.8H127a.4.4,0,0,1,0,.8Zm-8.06,0h-3.22a.4.4,0,1,1,0-.8h3.22a.4.4,0,1,1,0,.8Zm-8,0h-3.22a.4.4,0,1,1,0-.8h3.22a.4.4,0,1,1,0,.8Zm-8,0H99.57a.4.4,0,1,1,0-.8h3.22a.4.4,0,1,1,0,.8Zm-8.06,0H91.51a.4.4,0,1,1,0-.8h3.22a.4.4,0,1,1,0,.8Zm-8,0H83.46a.4.4,0,1,1,0-.8h3.22a.4.4,0,1,1,0,.8Zm-8.05,0H75.41a.4.4,0,1,1,0-.8h3.22a.4.4,0,1,1,0,.8Zm-8.06,0H67.35a.4.4,0,0,1,0-.8h3.22a.4.4,0,1,1,0,.8Zm-8,0H59.3a.4.4,0,0,1,0-.8h3.22a.4.4,0,0,1,0,.8Zm-8.05,0H51.25a.4.4,0,1,1,0-.8h3.22a.4.4,0,0,1,0,.8Zm-8,0H43.19a.4.4,0,0,1,0-.8h3.23a.4.4,0,0,1,0,.8Zm-8.06,0H35.14a.4.4,0,0,1,0-.8h3.22a.4.4,0,1,1,0,.8Zm-8,0H27.09a.4.4,0,0,1,0-.8h3.22a.4.4,0,1,1,0,.8Zm-8,0H19a.4.4,0,1,1,0-.8h3.22a.4.4,0,0,1,0,.8Z"/><rect class="cls-1" x="239.28" y="7.09" width="193.35" height="93.86" rx="4.83"/><rect class="cls-2" x="300.05" y="16.64" width="33.61" height="8.56" rx="4.28"/><rect class="cls-3" x="248.36" y="84.23" width="57.79" height="8.56" rx="4.28"/><rect class="cls-4" x="361.19" y="84.48" width="8.05" height="8.05" rx="4.03"/><rect class="cls-5" x="379.65" y="84.48" width="8.05" height="8.05" rx="4.03"/><rect class="cls-6" x="398.11" y="84.48" width="8.05" height="8.05" rx="4.03"/><rect class="cls-2" x="416.57" y="84.48" width="8.05" height="8.05" rx="4.03"/><rect class="cls-7" x="248.26" y="17.86" width="43.45" height="6.36"/><rect class="cls-7" x="248.26" y="38.26" width="160.31" height="6.36"/><rect class="cls-7" x="248.26" y="56" width="101.16" height="6.36"/><ellipse class="cls-5" cx="417.69" cy="20.91" rx="7.09" ry="7.13" transform="matrix(1, 0, 0, 1, -0.04, 0.88)"/><rect class="cls-8" x="248.49" y="75.71" width="175.23" height="0.3"/><line class="cls-9" x1="248.49" y1="75.86" x2="375.75" y2="75.86"/><path class="cls-11" d="M427.8,226.28h-3.22a.41.41,0,1,1,0-.81h3.22a4.43,4.43,0,0,0,2.14-.55.4.4,0,0,1,.55.16.42.42,0,0,1-.16.55A5.32,5.32,0,0,1,427.8,226.28Zm-8.05,0h-3.23a.41.41,0,0,1,0-.81h3.23a.41.41,0,0,1,0,.81Zm-8.06,0h-3.22a.41.41,0,0,1,0-.81h3.22a.41.41,0,1,1,0,.81Zm-8.05,0h-3.22a.41.41,0,0,1,0-.81h3.22a.41.41,0,0,1,0,.81Zm-8.05,0h-3.22a.41.41,0,1,1,0-.81h3.22a.41.41,0,0,1,0,.81Zm-8.06,0h-3.22a.41.41,0,0,1,0-.81h3.22a.41.41,0,1,1,0,.81Zm-8,0h-3.22a.41.41,0,0,1,0-.81h3.22a.41.41,0,0,1,0,.81Zm-8.05,0h-3.22a.41.41,0,1,1,0-.81h3.22a.41.41,0,0,1,0,.81Zm-8.05,0h-3.23a.41.41,0,0,1,0-.81h3.23a.41.41,0,0,1,0,.81Zm-8.06,0H352.1a.41.41,0,0,1,0-.81h3.22a.41.41,0,0,1,0,.81Zm-8.05,0h-3.22a.41.41,0,0,1,0-.81h3.22a.41.41,0,0,1,0,.81Zm-8,0H336a.41.41,0,1,1,0-.81h3.22a.41.41,0,0,1,0,.81Zm-8.06,0h-3.22a.41.41,0,0,1,0-.81h3.22a.41.41,0,1,1,0,.81Zm-8.05,0h-3.22a.41.41,0,0,1,0-.81h3.22a.41.41,0,0,1,0,.81Zm-8.05,0h-3.22a.41.41,0,1,1,0-.81h3.22a.41.41,0,0,1,0,.81Zm-8.06,0h-3.22a.41.41,0,0,1,0-.81H307a.41.41,0,1,1,0,.81Zm-8.05,0h-3.22a.41.41,0,0,1,0-.81H299a.41.41,0,0,1,0,.81Zm-8.05,0h-3.22a.41.41,0,1,1,0-.81h3.22a.41.41,0,0,1,0,.81Zm-8,0h-3.23a.41.41,0,0,1,0-.81h3.23a.41.41,0,0,1,0,.81Zm-8.06,0h-3.22a.41.41,0,0,1,0-.81h3.22a.41.41,0,1,1,0,.81Zm-8.05,0h-3.22a.41.41,0,0,1,0-.81h3.22a.41.41,0,0,1,0,.81Zm-8.05,0h-3.22a.41.41,0,1,1,0-.81h3.22a.41.41,0,0,1,0,.81Zm-8.06,0h-3.22a.41.41,0,0,1,0-.81h3.22a.41.41,0,1,1,0,.81Zm-8-.24-.13,0a5.26,5.26,0,0,1-2.72-2.08.38.38,0,0,1,.11-.55.4.4,0,0,1,.56.11,4.46,4.46,0,0,0,2.3,1.75.4.4,0,0,1-.12.79Zm190-4.27h0a.4.4,0,0,1-.37-.43c0-.1,0-.2,0-.3v-2.9a.4.4,0,0,1,.8,0V221c0,.12,0,.24,0,.35A.4.4,0,0,1,432.62,221.77Zm-193.34-2.32a.4.4,0,0,1-.4-.4v-3.22a.4.4,0,0,1,.8,0v3.22A.4.4,0,0,1,239.28,219.45Zm193.35-5.74a.4.4,0,0,1-.4-.4v-3.22a.4.4,0,0,1,.8,0v3.22A.4.4,0,0,1,432.63,213.71ZM239.28,211.4a.4.4,0,0,1-.4-.4v-3.22a.4.4,0,1,1,.8,0V211A.4.4,0,0,1,239.28,211.4Zm193.35-5.74a.4.4,0,0,1-.4-.4V202a.4.4,0,0,1,.8,0v3.22A.4.4,0,0,1,432.63,205.66Zm-193.35-2.31a.4.4,0,0,1-.4-.41v-3.22a.4.4,0,0,1,.8,0v3.22A.4.4,0,0,1,239.28,203.35Zm193.35-5.74a.4.4,0,0,1-.4-.4V194a.4.4,0,1,1,.8,0v3.22A.4.4,0,0,1,432.63,197.61Zm-193.35-2.32a.4.4,0,0,1-.4-.4v-3.22a.4.4,0,0,1,.8,0v3.22A.4.4,0,0,1,239.28,195.29Zm193.35-5.73a.4.4,0,0,1-.4-.41v-3.22a.4.4,0,0,1,.8,0v3.22A.4.4,0,0,1,432.63,189.56Zm-193.35-2.32a.4.4,0,0,1-.4-.4v-3.22a.4.4,0,1,1,.8,0v3.22A.4.4,0,0,1,239.28,187.24Zm193.35-5.74a.4.4,0,0,1-.4-.4v-3.22a.4.4,0,0,1,.8,0v3.22A.4.4,0,0,1,432.63,181.5Zm-193.35-2.31a.4.4,0,0,1-.4-.41v-3.22a.4.4,0,0,1,.8,0v3.22A.4.4,0,0,1,239.28,179.19Zm193.35-5.74a.4.4,0,0,1-.4-.4v-3.22a.4.4,0,1,1,.8,0v3.22A.4.4,0,0,1,432.63,173.45Zm-193.35-2.32a.4.4,0,0,1-.4-.4v-3.22a.4.4,0,0,1,.8,0v3.22A.4.4,0,0,1,239.28,171.13Zm193.35-5.73a.4.4,0,0,1-.4-.41v-3.22a.4.4,0,0,1,.8,0V165A.4.4,0,0,1,432.63,165.4Zm-193.35-2.32a.4.4,0,0,1-.4-.4v-3.22a.4.4,0,0,1,.8,0v3.22A.4.4,0,0,1,239.28,163.08Zm193.35-5.74a.4.4,0,0,1-.4-.4v-3.22a.4.4,0,0,1,.8,0v3.22A.4.4,0,0,1,432.63,157.34ZM239.28,155a.4.4,0,0,1-.4-.4V151.4a.4.4,0,0,1,.8,0v3.23A.4.4,0,0,1,239.28,155Zm193.35-5.74a.4.4,0,0,1-.4-.4v-3.22a.4.4,0,1,1,.8,0v3.22A.4.4,0,0,1,432.63,149.29ZM239.28,147a.4.4,0,0,1-.4-.41v-3.22a.4.4,0,0,1,.8,0v3.22A.4.4,0,0,1,239.28,147Zm193.35-5.74a.4.4,0,0,1-.4-.4v-3.23a.4.4,0,0,1,.8,0v3.23A.4.4,0,0,1,432.63,141.24Zm-193.35-2.32a.4.4,0,0,1-.4-.4v-1.68a5.36,5.36,0,0,1,.26-1.64.4.4,0,0,1,.77.25,4.4,4.4,0,0,0-.23,1.39v1.68A.4.4,0,0,1,239.28,138.92ZM431,133.65a.38.38,0,0,1-.26-.11,4.45,4.45,0,0,0-2.67-1.12.4.4,0,0,1-.38-.43.39.39,0,0,1,.43-.37,5.21,5.21,0,0,1,3.15,1.32.4.4,0,0,1,0,.57A.37.37,0,0,1,431,133.65Zm-188.11-1.09a.4.4,0,0,1-.1-.79,5.14,5.14,0,0,1,1.3-.16h2a.4.4,0,1,1,0,.8h-2a4.54,4.54,0,0,0-1.1.14Zm180.37-.15h-3.22a.4.4,0,0,1,0-.8h3.22a.4.4,0,1,1,0,.8Zm-8,0H412a.4.4,0,1,1,0-.8h3.22a.4.4,0,0,1,0,.8Zm-8.06,0H404a.4.4,0,0,1,0-.8h3.22a.4.4,0,1,1,0,.8Zm-8.05,0H395.9a.4.4,0,0,1,0-.8h3.22a.4.4,0,0,1,0,.8Zm-8.05,0h-3.22a.4.4,0,1,1,0-.8h3.22a.4.4,0,1,1,0,.8Zm-8.05,0h-3.23a.4.4,0,0,1,0-.8H383a.4.4,0,1,1,0,.8Zm-8.06,0h-3.22a.4.4,0,0,1,0-.8H375a.4.4,0,1,1,0,.8Zm-8,0h-3.22a.4.4,0,1,1,0-.8h3.22a.4.4,0,0,1,0,.8Zm-8.05,0h-3.22a.4.4,0,1,1,0-.8h3.22a.4.4,0,0,1,0,.8Zm-8.06,0h-3.22a.4.4,0,1,1,0-.8h3.22a.4.4,0,1,1,0,.8Zm-8.05,0h-3.22a.4.4,0,1,1,0-.8h3.22a.4.4,0,0,1,0,.8Zm-8.05,0h-3.22a.4.4,0,1,1,0-.8h3.22a.4.4,0,1,1,0,.8Zm-8.06,0h-3.22a.4.4,0,0,1,0-.8h3.22a.4.4,0,1,1,0,.8Zm-8.05,0h-3.22a.4.4,0,1,1,0-.8h3.22a.4.4,0,1,1,0,.8Zm-8,0h-3.22a.4.4,0,1,1,0-.8h3.22a.4.4,0,0,1,0,.8Zm-8.05,0h-3.23a.4.4,0,1,1,0-.8h3.23a.4.4,0,0,1,0,.8Zm-8.06,0h-3.22a.4.4,0,1,1,0-.8h3.22a.4.4,0,1,1,0,.8Zm-8.05,0h-3.22a.4.4,0,0,1,0-.8h3.22a.4.4,0,0,1,0,.8Zm-8.05,0h-3.22a.4.4,0,1,1,0-.8h3.22a.4.4,0,0,1,0,.8Zm-8.06,0h-3.22a.4.4,0,0,1,0-.8h3.22a.4.4,0,1,1,0,.8Zm-8,0H259a.4.4,0,1,1,0-.8h3.22a.4.4,0,0,1,0,.8Zm-8.05,0H251a.4.4,0,1,1,0-.8h3.22a.4.4,0,1,1,0,.8Z"/><rect class="cls-12" x="222.86" y="152.32" width="193.35" height="93.86" rx="8.05" transform="translate(47.4 -61.03) rotate(11.78)"/><rect class="cls-1" x="211.58" y="161.18" width="193.35" height="93.86" rx="4.83" transform="translate(48.97 -58.54) rotate(11.78)"/><rect class="cls-2" x="279.51" y="167.52" width="33.61" height="8.56" rx="4.28" transform="translate(41.31 -56.87) rotate(11.78)"/><rect class="cls-3" x="214.86" y="225.61" width="57.79" height="8.56" rx="4.28" transform="translate(52.06 -44.92) rotate(11.78)"/><rect class="cls-4" x="325.84" y="243.82" width="8.05" height="8.05" rx="4.03" transform="translate(57.54 -62.12) rotate(11.78)"/><rect class="cls-5" x="343.91" y="247.58" width="8.05" height="8.05" rx="4.03" transform="translate(58.69 -65.73) rotate(11.78)"/><rect class="cls-6" x="361.98" y="251.35" width="8.05" height="8.05" rx="4.03" transform="translate(59.84 -69.34) rotate(11.78)"/><rect class="cls-2" x="380.05" y="255.12" width="8.05" height="8.05" rx="4.03" transform="translate(60.99 -72.94) rotate(11.78)"/><rect class="cls-7" x="228.69" y="159.18" width="43.45" height="6.36" transform="translate(38.41 -47.7) rotate(11.78)"/><rect class="cls-7" x="223.29" y="191.08" width="160.31" height="6.36" transform="translate(46.04 -57.85) rotate(11.78)"/><rect class="cls-7" x="220.3" y="202.4" width="101.16" height="6.36" transform="matrix(0.98, 0.2, -0.2, 0.98, 47.67, -50.97)"/><ellipse class="cls-5" cx="395.03" cy="192.38" rx="7.13" ry="7.09" transform="translate(126.8 540.4) rotate(-78.34)"/><rect class="cls-8" x="303.8" y="141.9" width="0.3" height="175.23" transform="translate(17.22 480.21) rotate(-78.22)"/><rect class="cls-8" x="280.32" y="160.99" width="0.3" height="127.27" transform="translate(3.32 453.33) rotate(-78.22)"/><g class="cls-13"><path d="M221.94,259.63c-34,0-55.86-16.19-68.18-29.77A97.43,97.43,0,0,1,135,200.07a1.12,1.12,0,0,1,2.12-.75,96.81,96.81,0,0,0,18.35,29.09c12,13.22,33.28,29,66.46,29,34.73,0,57.83-16,71.09-29.51a105.14,105.14,0,0,0,20.73-29.62,1.12,1.12,0,0,1,2.07.86,107.45,107.45,0,0,1-21.14,30.27C281.12,243.18,257.49,259.63,221.94,259.63Z"/></g><path class="cls-14" d="M221.94,269.26c-34.11,0-56-18.8-68.3-34.56a119.87,119.87,0,0,1-18.72-34.49,1.2,1.2,0,0,1,.8-1.51,1.22,1.22,0,0,1,1.51.81,117.34,117.34,0,0,0,18.36,33.76c12,15.32,33.24,33.57,66.35,33.57,34.7,0,57.78-18.63,71-34.26a125,125,0,0,0,20.69-34.3,1.21,1.21,0,1,1,2.27.81,127.57,127.57,0,0,1-21.12,35.06C281.23,250.16,257.56,269.26,221.94,269.26Z"/><circle class="cls-14" cx="314.77" cy="198.94" r="6.44"/></svg>